<svg width="16" height="16" viewBox="0 0 16 16" fill="none" xmlns="http://www.w3.org/2000/svg">
<path d="M8 8.47999C9.1046 8.47999 10 7.58459 10 6.47997C10 5.37541 9.1046 4.47997 8 4.47997C6.8954 4.47997 6 5.37541 6 6.47997C6 7.58459 6.8954 8.47999 8 8.47999Z" stroke="#96959B" stroke-miterlimit="10" stroke-linecap="round"/>
<path d="M8.00005 2.47997C4.00003 2.47997 3.33337 5.81331 4.00003 8.33999C4.5867 10.5533 6.3467 12.0667 7.50672 13.3067C7.56919 13.3754 7.64539 13.4303 7.73032 13.4679C7.81525 13.5055 7.90719 13.5249 8.00005 13.5249C8.09299 13.5249 8.18485 13.5055 8.26979 13.4679C8.35472 13.4303 8.43092 13.3754 8.49339 13.3067C9.65339 12.0667 11.4134 10.5533 12.0001 8.33999C12.6667 5.81331 12.0001 2.47997 8.00005 2.47997Z" stroke="#96959B" stroke-miterlimit="10" stroke-linecap="round"/>
</svg>
